<?xml version="1.0" encoding="UTF-8"?><svg id="Layer_1" xmlns="http://www.w3.org/2000/svg" viewBox="0 0 7000 3977.48"><defs><style>.cls-1{fill:#bee5ec;}.cls-1,.cls-2,.cls-3{fill-rule:evenodd;stroke-width:0px;}.cls-2{fill:#d6bcdb;}.cls-3{fill:#ffc2af;}</style></defs><path class="cls-2" d="M4925.4,3977.48c-.4-13.57-.65-27.18-.65-40.85,0-165.62,27.26-324.86,77.5-473.52-94.39-194.72-147.36-413.24-147.36-644.15,0-713,504.68-1308.08,1176.29-1447.62,232.8-296.66,576.58-502.07,968.82-553.75v3159.89h-2074.6Z"/><path class="cls-1" d="M5143.71,0c-391.05,438.92-982.17,682.41-1601.09,609.47-399.24,577.3-1110.6,901.81-1847.18,772.26-286.77-50.44-546.41-164.33-767.17-324.6C658.25,1244.67,338.62,1360.9,0,1384.35V0h5143.71Z"/><path class="cls-3" d="M0,2736.62c75.99,1.54,153.42,6.46,232,14.93,554.41,59.79,1051.82,283.74,1391.14,590.1,104.86-1.58,212.74,3.3,322.89,15.18,572.67,61.76,1084.52,298.68,1424.13,620.65H0v-1240.87Z"/></svg>